<?xml version="1.0" encoding="UTF-8" standalone="no"?>
<!DOCTYPE svg PUBLIC "-//W3C//DTD SVG 1.1//EN"
 "http://www.w3.org/Graphics/SVG/1.1/DTD/svg11.dtd">
<!-- Generated by graphviz version 7.1.0 (20230122.1345)
 -->
<!-- Pages: 1 -->
<svg width="274pt" height="404pt"
 viewBox="0.00 0.00 274.28 404.00" xmlns="http://www.w3.org/2000/svg" xmlns:xlink="http://www.w3.org/1999/xlink">
<g id="graph0" class="graph" transform="scale(1 1) rotate(0) translate(4 400)">
<polygon fill="white" stroke="none" points="-4,4 -4,-400 270.28,-400 270.28,4 -4,4"/>
<!-- adapt_omop -->
<g id="node1" class="node">
<title>adapt_omop</title>
<ellipse fill="none" stroke="black" cx="124.14" cy="-234" rx="66.89" ry="18"/>
<text text-anchor="middle" x="124.14" y="-230.3" font-family="Times,serif" font-size="14.00">adapt_omop</text>
</g>
<!-- train_OMOP -->
<g id="node5" class="node">
<title>train_OMOP</title>
<ellipse fill="none" stroke="black" cx="124.14" cy="-162" rx="67.69" ry="18"/>
<text text-anchor="middle" x="124.14" y="-158.3" font-family="Times,serif" font-size="14.00">train_OMOP</text>
</g>
<!-- adapt_omop&#45;&gt;train_OMOP -->
<g id="edge1" class="edge">
<title>adapt_omop&#45;&gt;train_OMOP</title>
<path fill="none" stroke="black" d="M124.14,-215.7C124.14,-208.41 124.14,-199.73 124.14,-191.54"/>
<polygon fill="black" stroke="black" points="127.64,-191.62 124.14,-181.62 120.64,-191.62 127.64,-191.62"/>
</g>
<!-- retrieve_raw_omop_data -->
<g id="node2" class="node">
<title>retrieve_raw_omop_data</title>
<ellipse fill="none" stroke="black" cx="124.14" cy="-378" rx="124.28" ry="18"/>
<text text-anchor="middle" x="124.14" y="-374.3" font-family="Times,serif" font-size="14.00">retrieve_raw_omop_data</text>
</g>
<!-- clean_raw_data -->
<g id="node6" class="node">
<title>clean_raw_data</title>
<ellipse fill="none" stroke="black" cx="124.14" cy="-306" rx="81.79" ry="18"/>
<text text-anchor="middle" x="124.14" y="-302.3" font-family="Times,serif" font-size="14.00">clean_raw_data</text>
</g>
<!-- retrieve_raw_omop_data&#45;&gt;clean_raw_data -->
<g id="edge2" class="edge">
<title>retrieve_raw_omop_data&#45;&gt;clean_raw_data</title>
<path fill="none" stroke="black" d="M124.14,-359.7C124.14,-352.41 124.14,-343.73 124.14,-335.54"/>
<polygon fill="black" stroke="black" points="127.64,-335.62 124.14,-325.62 120.64,-335.62 127.64,-335.62"/>
</g>
<!-- validate_OMOP -->
<g id="node3" class="node">
<title>validate_OMOP</title>
<ellipse fill="none" stroke="black" cx="124.14" cy="-18" rx="82.59" ry="18"/>
<text text-anchor="middle" x="124.14" y="-14.3" font-family="Times,serif" font-size="14.00">validate_OMOP</text>
</g>
<!-- simulate_OMOP -->
<g id="node4" class="node">
<title>simulate_OMOP</title>
<ellipse fill="none" stroke="black" cx="181.14" cy="-90" rx="85.29" ry="18"/>
<text text-anchor="middle" x="181.14" y="-86.3" font-family="Times,serif" font-size="14.00">simulate_OMOP</text>
</g>
<!-- simulate_OMOP&#45;&gt;validate_OMOP -->
<g id="edge3" class="edge">
<title>simulate_OMOP&#45;&gt;validate_OMOP</title>
<path fill="none" stroke="black" d="M167.34,-72.05C160.62,-63.8 152.4,-53.7 144.93,-44.54"/>
<polygon fill="black" stroke="black" points="147.79,-42.51 138.77,-36.96 142.37,-46.93 147.79,-42.51"/>
</g>
<!-- train_OMOP&#45;&gt;validate_OMOP -->
<g id="edge4" class="edge">
<title>train_OMOP&#45;&gt;validate_OMOP</title>
<path fill="none" stroke="black" d="M108.49,-144.31C100.41,-134.54 91.38,-121.49 87.14,-108 82.34,-92.74 82.34,-87.26 87.14,-72 90.19,-62.31 95.71,-52.84 101.57,-44.65"/>
<polygon fill="black" stroke="black" points="104.23,-46.94 107.56,-36.88 98.68,-42.67 104.23,-46.94"/>
</g>
<!-- train_OMOP&#45;&gt;simulate_OMOP -->
<g id="edge5" class="edge">
<title>train_OMOP&#45;&gt;simulate_OMOP</title>
<path fill="none" stroke="black" d="M137.94,-144.05C144.66,-135.8 152.88,-125.7 160.34,-116.54"/>
<polygon fill="black" stroke="black" points="162.91,-118.93 166.51,-108.96 157.48,-114.51 162.91,-118.93"/>
</g>
<!-- clean_raw_data&#45;&gt;adapt_omop -->
<g id="edge6" class="edge">
<title>clean_raw_data&#45;&gt;adapt_omop</title>
<path fill="none" stroke="black" d="M124.14,-287.7C124.14,-280.41 124.14,-271.73 124.14,-263.54"/>
<polygon fill="black" stroke="black" points="127.64,-263.62 124.14,-253.62 120.64,-263.62 127.64,-263.62"/>
</g>
</g>
</svg>
